<svg width="96" height="96" viewBox="0 0 96 96" preserveAspectRatio="xMidYMid meet" xmlns="http://www.w3.org/2000/svg">
  <defs>
    <linearGradient id="logoGradient" x1="0%" y1="0%" x2="100%" y2="0%">
      <stop offset="0%" stop-color="#4cc9f0" />
      <stop offset="100%" stop-color="#4cc9f0" stop-opacity="0.8" />
    </linearGradient>
  </defs>
  
  <!-- Fundo quadrado -->
  <rect width="96" height="96" rx="10" ry="10" fill="url(#logoGradient)"></rect>
  
  <!-- Ãcones em branco - centralizado -->
  <g
    transform="matrix(0.7977662295158654,0,0,0.7977662295158654,12,12)"
    fill="#ffffff"
  >
    <g>
      <path
        fill="#ffffff"
        d="M74.993,35.487c-0.296,0-0.591,0.007-0.889,0.021c-0.605-6.927-6.438-12.38-13.52-12.38   c-1.324,0-2.621,0.188-3.871,0.561c-4.387-5.478-11.052-8.709-18.104-8.709c-12.783,0-23.184,10.399-23.184,23.183   c0,1.81,0.21,3.603,0.626,5.355c-5.819,2.345-9.742,8.042-9.742,14.438c0,3.746,1.351,7.365,3.804,10.193   c2.397,2.768,5.692,4.602,9.286,5.174c0.794,0.23,1.611,0.346,2.433,0.346h5.529v-3.686h-5.529c-0.504,0-1.006-0.074-1.494-0.223   c-0.084-0.025-0.17-0.047-0.258-0.061c-5.751-0.867-10.087-5.92-10.087-11.746c0-5.359,3.61-10.078,8.78-11.472   c0.486-0.131,0.897-0.455,1.138-0.898c0.24-0.441,0.289-0.964,0.135-1.443c-0.621-1.934-0.937-3.944-0.937-5.979   c0-10.752,8.748-19.501,19.5-19.501c6.325,0,12.284,3.095,15.939,8.276c0.498,0.706,1.42,0.971,2.217,0.636   c1.21-0.506,2.494-0.764,3.816-0.764c5.451,0,9.889,4.437,9.889,9.888c0,0.21-0.01,0.436-0.028,0.712   c-0.041,0.56,0.179,1.107,0.593,1.487c0.413,0.38,0.977,0.55,1.531,0.462c0.805-0.127,1.619-0.191,2.423-0.191   c8.481,0,15.384,6.899,15.384,15.381c0,8.48-6.9,15.383-15.384,15.383c-0.058,0-0.112-0.002-0.17-0.004l-0.162-0.006   c-0.092,0-0.185,0.004-0.276,0.016c-0.234,0.031-0.453,0.045-0.668,0.045h-1.56v3.686h1.56c0.322,0,0.653-0.021,0.99-0.061   c0.096,0.004,0.189,0.008,0.286,0.008c10.513,0,19.065-8.553,19.065-19.066C94.056,44.038,85.505,35.487,74.993,35.487z"
      ></path>
    </g>
    <g>
      <path
        fill="#ffffff"
        d="M61.803,50.278c0,0-2.367,2.445-7.33,2.445v4.887c0,0,9.773-0.15,9.773-4.887   C64.246,50.278,61.803,50.278,61.803,50.278z"
      ></path>
      <path
        fill="#ffffff"
        d="M61.803,58.952c0,0-2.367,2.441-7.33,2.441v4.887c0,0,9.773-0.15,9.773-4.887   C64.246,58.952,61.803,58.952,61.803,58.952z"
      ></path>
      <path
        fill="#ffffff"
        d="M61.803,67.624c0,0-2.367,2.441-7.33,2.441v4.889c0,0,9.773-0.152,9.773-4.889   C64.246,67.624,61.803,67.624,61.803,67.624z"
      ></path>
      <ellipse
        fill="#ffffff"
        cx="54.473"
        cy="44.05"
        rx="9.771"
        ry="4.887"
      ></ellipse>
      <path
        fill="#ffffff"
        d="M49.584,63.839c0,0-2.365,2.441-7.33,2.441c-4.963,0-7.33-2.441-7.33-2.441s-2.443,0-2.443,2.441   c0,4.734,9.775,4.889,9.775,4.889s9.773-0.152,9.773-4.889C52.029,63.839,49.584,63.839,49.584,63.839z"
      ></path>
      <path
        fill="#ffffff"
        d="M49.584,72.511c0,0-2.365,2.443-7.33,2.443c-4.963,0-7.33-2.443-7.33-2.443s-2.443,0-2.443,2.443   c-0.002,4.73,9.773,4.885,9.773,4.885s9.775-0.152,9.775-4.885C52.029,72.511,49.584,72.511,49.584,72.511z"
      ></path>
      <ellipse
        fill="#ffffff"
        cx="42.254"
        cy="57.61"
        rx="9.775"
        ry="4.887"
      ></ellipse>
    </g>
  </g>
</svg>
